<svg width="132" height="131" viewBox="0 0 132 131" fill="none" xmlns="http://www.w3.org/2000/svg">
<path d="M64.841 100.659C65.7544 100.829 66.5595 101.093 67.2563 101.45C67.9444 101.805 68.4786 102.255 68.859 102.798L67.3495 103.73C67.0785 103.379 66.7011 103.064 66.2173 102.783C65.7231 102.509 65.1423 102.31 64.4748 102.186C64.2816 102.15 64.0911 102.123 63.9034 102.106C63.7069 102.088 63.5255 102.086 63.3592 102.1C63.1913 102.124 63.0517 102.166 62.9404 102.227C62.8291 102.288 62.7627 102.375 62.7415 102.49C62.7071 102.674 62.8354 102.839 63.1265 102.984C63.3346 103.086 63.5891 103.184 63.8899 103.276C64.1891 103.377 64.476 103.472 64.7505 103.559C65.3225 103.757 65.8287 103.942 66.2691 104.115C66.7078 104.296 67.0716 104.514 67.3606 104.768C67.5913 104.993 67.7628 105.243 67.8751 105.518C67.9769 105.801 67.9927 106.131 67.9223 106.508C67.8585 106.851 67.701 107.135 67.45 107.361C67.1972 107.595 66.878 107.772 66.4924 107.891C66.1051 108.019 65.6741 108.089 65.1994 108.1C64.7159 108.11 64.2151 108.067 63.6969 107.97C63.2314 107.883 62.7645 107.756 62.2962 107.587C61.8175 107.425 61.3733 107.224 60.9636 106.984C60.5435 106.751 60.1947 106.477 59.9172 106.162L61.2034 105.038C61.411 105.241 61.6739 105.44 61.9918 105.635C62.3098 105.831 62.6591 106.005 63.0395 106.157C63.42 106.31 63.8167 106.425 64.2295 106.502C64.4139 106.536 64.6 106.562 64.7877 106.579C64.965 106.603 65.1323 106.606 65.2898 106.59C65.4385 106.573 65.5677 106.538 65.6774 106.485C65.7871 106.433 65.8518 106.354 65.8714 106.249C65.8829 106.187 65.8724 106.122 65.8399 106.052C65.8058 105.991 65.7534 105.932 65.6825 105.873C65.5265 105.735 65.2917 105.605 64.9782 105.483C64.6543 105.368 64.304 105.248 63.9274 105.123C63.2165 104.891 62.6246 104.653 62.1518 104.411C61.6702 104.167 61.2989 103.916 61.038 103.658C60.8303 103.456 60.6934 103.239 60.6273 103.009C60.5507 102.786 60.5378 102.538 60.5886 102.266C60.6769 101.791 60.9155 101.413 61.3043 101.131C61.6843 100.848 62.1777 100.663 62.7846 100.576C63.3914 100.489 64.0769 100.517 64.841 100.659Z" fill="white"/>
<path d="M52.2229 97.887C53.0325 98.4597 53.6532 99.0904 54.0853 99.7791C54.5049 100.47 54.7224 101.16 54.738 101.85C54.7536 102.539 54.5602 103.168 54.1577 103.737C53.8223 104.211 53.421 104.562 52.9536 104.789C52.4811 105.024 51.977 105.149 51.4411 105.164C50.898 105.174 50.3477 105.085 49.7902 104.899C49.2203 104.714 48.68 104.442 48.1695 104.081C47.6517 103.714 47.2256 103.303 46.8912 102.848C46.5444 102.395 46.2997 101.921 46.1573 101.426C46.0024 100.933 45.9602 100.444 46.0307 99.9573C46.1012 99.471 46.2985 99.0142 46.6227 98.5869L47.0128 98.0586L53.1719 102.416L52.6495 103.688L47.661 100.159L48.025 100.039L47.8702 100.257C47.7601 100.475 47.7482 100.724 47.8347 101.004C47.9086 101.286 48.0605 101.574 48.2903 101.868C48.5129 102.157 48.7955 102.422 49.1383 102.665C49.5321 102.943 49.9329 103.15 50.3406 103.286C50.7483 103.421 51.1343 103.448 51.4984 103.366C51.8574 103.292 52.1659 103.072 52.4239 102.708C52.6458 102.394 52.7376 102.032 52.6994 101.622C52.6487 101.214 52.4744 100.795 52.1765 100.366C51.8713 99.9309 51.4452 99.52 50.8982 99.133C50.3439 98.7409 49.8541 98.4819 49.4288 98.3561C48.9983 98.2376 48.6682 98.1627 48.4386 98.1316L48.4841 96.4894C48.8726 96.5126 49.281 96.5772 49.7094 96.6833C50.1326 96.7967 50.557 96.9547 50.9827 97.1573C51.4084 97.36 51.8218 97.6032 52.2229 97.887Z" fill="white"/>
<path d="M43.6798 92.2042L36.0137 98.4944L34.6536 96.8368L42.3198 90.5467L43.6798 92.2042Z" fill="white"/>
<path d="M37.1834 84.8262L30.7059 87.2074C30.1273 87.42 29.578 87.4792 29.0579 87.3849C28.5377 87.2905 28.0771 87.0601 27.6758 86.6936C27.2746 86.3271 26.963 85.842 26.7411 85.2382C26.5562 84.7351 26.4592 84.2901 26.4502 83.9032C26.4381 83.5078 26.4538 83.188 26.4972 82.9436L28.202 82.9594C28.179 83.1297 28.1702 83.3518 28.1758 83.6258C28.1698 83.8945 28.2115 84.1504 28.3009 84.3936C28.415 84.7038 28.5635 84.9395 28.7465 85.1007C28.9295 85.2619 29.1317 85.3589 29.3531 85.3917C29.5631 85.4192 29.7813 85.3913 30.0077 85.3081L36.4853 82.927L36.832 83.8703C36.8999 84.0548 36.963 84.2267 37.0216 84.386C37.0802 84.5453 37.1341 84.6921 37.1834 84.8262ZM33.0203 88.027L31.36 88.6373L29.1084 82.512L30.7687 81.9017L33.0203 88.027Z" fill="white"/>
<path d="M30.2762 76.2327L28.3891 76.3282L28.1074 70.7606L29.9945 70.6652L30.2762 76.2327Z" fill="white"/>
<path d="M32.7407 60.9646C32.4326 61.7266 32.0215 62.3265 31.5072 62.7642C30.993 63.202 30.413 63.4686 29.7673 63.5641C29.125 63.6513 28.4725 63.561 27.8099 63.2931C27.1391 63.0219 26.6121 62.621 26.2292 62.0903C25.838 61.5564 25.6146 60.9409 25.5591 60.2439C25.4954 59.5436 25.6175 58.8125 25.9256 58.0505C26.1097 57.5949 26.3285 57.1968 26.5819 56.8559C26.8387 56.5068 27.1085 56.2208 27.3913 55.9979C27.6659 55.7717 27.9377 55.6117 28.2068 55.5182C28.4759 55.4246 28.7149 55.4056 28.9237 55.4611L28.8447 55.9784L24.5957 54.2607L25.4044 52.2604L34.598 55.9771L33.8496 57.8283L32.0526 57.2319L32.3749 56.8997C32.5636 57.0049 32.723 57.1946 32.853 57.4688C32.9864 57.7347 33.074 58.0544 33.1158 58.4278C33.1575 58.8012 33.1519 59.2085 33.0988 59.6496C33.0409 60.079 32.9215 60.5174 32.7407 60.9646ZM31.2649 59.6453C31.4591 59.1649 31.5578 58.7182 31.561 58.3051C31.5559 57.8887 31.4634 57.5333 31.2837 57.239C31.1039 56.9447 30.8484 56.7306 30.5171 56.5967C30.1775 56.4594 29.845 56.4358 29.5195 56.5258C29.1857 56.6125 28.8765 56.8055 28.5917 57.1047C28.2986 57.4006 28.055 57.7887 27.8608 58.2691C27.6699 58.7412 27.577 59.1855 27.5821 59.6019C27.5823 60.0067 27.6706 60.3604 27.847 60.663C28.0151 60.9622 28.2689 61.1804 28.6085 61.3177C28.9398 61.4517 29.274 61.4711 29.6112 61.3762C29.9483 61.2812 30.2617 61.0899 30.5514 60.8023C30.8362 60.5031 31.074 60.1174 31.2649 59.6453Z" fill="white"/>
<path d="M38.8217 46.9255C38.0974 47.6028 37.3545 48.0837 36.5928 48.3679C35.8316 48.6396 35.1118 48.7135 34.4333 48.5897C33.7548 48.4659 33.1775 48.1495 32.7015 47.6406C32.3048 47.2165 32.0422 46.7526 31.9137 46.249C31.779 45.7389 31.7585 45.2199 31.8519 44.6921C31.952 44.1582 32.1495 43.637 32.4446 43.1286C32.7401 42.6075 33.1162 42.1334 33.573 41.7062C34.0362 41.2729 34.5246 40.9384 35.0381 40.7028C35.5521 40.4545 36.0657 40.3105 36.579 40.2707C37.0927 40.2184 37.5806 40.2758 38.0428 40.4429C38.5049 40.61 38.9126 40.8954 39.2657 41.2991L39.7044 41.7878L34.1944 46.9415L33.0539 46.1733L37.5167 41.9992L37.5609 42.3799L37.3778 42.1841C37.187 42.0324 36.9457 41.9706 36.654 41.9988C36.3627 42.0143 36.05 42.105 35.7158 42.2708C35.3881 42.4305 35.0709 42.6538 34.7642 42.9406C34.4119 43.2701 34.1284 43.6209 33.9137 43.993C33.699 44.3651 33.5949 44.7377 33.6014 45.1108C33.6018 45.4774 33.7546 45.8238 34.0597 46.1501C34.3221 46.4306 34.658 46.5935 35.0673 46.6388C35.4771 46.6715 35.9224 46.5852 36.4033 46.3801C36.8907 46.1688 37.3791 45.8343 37.8684 45.3766C38.3643 44.9128 38.7167 44.4853 38.9258 44.0941C39.1287 43.6964 39.2685 43.3882 39.3454 43.1695L40.9446 43.5453C40.8435 43.9212 40.6979 44.3082 40.5076 44.7064C40.3112 45.098 40.0708 45.4818 39.7865 45.8579C39.5021 46.234 39.1805 46.5898 38.8217 46.9255Z" fill="white"/>
<path d="M48.7839 37.6419L42.5806 32.3409L44.9326 31.4763L49.541 35.7788L48.9432 36.0556L49.6996 29.724L52.0265 28.8686L50.6202 36.9668L48.7839 37.6419Z" fill="white"/>
<path d="M62.7907 33.0809C61.8027 32.9961 60.9482 32.7658 60.2273 32.39C59.516 32.0061 58.9794 31.5206 58.6173 30.9336C58.2553 30.3466 58.1041 29.7059 58.1637 29.0116C58.2135 28.4331 58.3824 27.9275 58.6706 27.495C58.9596 27.0535 59.3315 26.6909 59.7863 26.4072C60.25 26.1242 60.7694 25.9223 61.3447 25.8013C61.9297 25.6723 62.5337 25.6345 63.1568 25.688C63.7887 25.7423 64.3641 25.8814 64.8829 26.1053C65.4113 26.3211 65.862 26.6064 66.235 26.9612C66.6177 27.3079 66.9016 27.7089 67.0866 28.1642C67.2717 28.6194 67.3324 29.1133 67.2687 29.6458L67.1991 30.2989L59.6823 29.6532L59.4899 28.2916L65.5782 28.8147L65.3248 29.1023L65.3477 28.8352C65.3328 28.5918 65.2172 28.3712 65.0011 28.1733C64.7946 27.9673 64.518 27.7955 64.1711 27.6581C63.8331 27.5215 63.455 27.4352 63.0367 27.3993C62.556 27.358 62.1056 27.3821 61.6854 27.4715C61.2653 27.561 60.9188 27.7329 60.6458 27.9875C60.3737 28.2331 60.2185 28.5784 60.1802 29.0235C60.1473 29.4062 60.251 29.7648 60.4913 30.0993C60.7412 30.4256 61.1033 30.6988 61.5776 30.9189C62.0608 31.1397 62.6361 31.2788 63.3037 31.3362C63.9802 31.3943 64.5337 31.3701 64.9643 31.2636C65.3956 31.1482 65.7182 31.0459 65.9321 30.9567L66.723 32.3966C66.3761 32.573 65.9911 32.7237 65.5679 32.8488C65.1454 32.9649 64.6993 33.0432 64.2296 33.0835C63.7599 33.1239 63.2802 33.123 62.7907 33.0809Z" fill="white"/>
<path d="M72.8457 33.5916L76.2254 24.2689L78.2411 24.9996L74.8614 34.3224L72.8457 33.5916Z" fill="white"/>
<path d="M85.6574 38.9552C84.9746 38.2735 84.4813 37.56 84.1775 36.8148C83.88 36.0633 83.7784 35.3433 83.8726 34.6546C83.9795 33.966 84.2854 33.3688 84.7904 32.863C85.3017 32.3509 85.8984 32.0441 86.5806 31.9425C87.2691 31.8472 87.9861 31.9509 88.7318 32.2535C89.4837 32.5499 90.2011 33.0389 90.8839 33.7206C91.5667 34.4023 92.0536 35.1158 92.3448 35.861C92.6423 36.5998 92.7407 37.3104 92.6402 37.9928C92.546 38.6814 92.2432 39.2818 91.7319 39.7939C91.2269 40.2996 90.627 40.6033 89.9322 40.7049C89.2501 40.8065 88.5362 40.7123 87.7905 40.4223C87.0512 40.1259 86.3401 39.6369 85.6574 38.9552ZM86.964 37.6465C87.318 38 87.6941 38.2682 88.0922 38.4511C88.503 38.634 88.8915 38.7127 89.2579 38.6871C89.6306 38.6679 89.9432 38.5255 90.1957 38.26C90.4608 38.0071 90.6027 37.6943 90.6213 37.3216C90.6526 36.9488 90.5734 36.5604 90.3836 36.1562C90.2064 35.7521 89.9408 35.3733 89.5867 35.0198C89.2264 34.66 88.8408 34.3886 88.4301 34.2057C88.0319 34.0229 87.6465 33.941 87.2738 33.9603C86.9075 33.9858 86.5917 34.1314 86.3266 34.3969C86.0678 34.6561 85.9259 34.9689 85.9009 35.3353C85.8823 35.708 85.9615 36.0965 86.1387 36.5006C86.3285 36.9048 86.6036 37.2868 86.964 37.6465Z" fill="white"/>
<path d="M91.8498 46.4285L101.422 43.2793L102.059 45.2142L100.556 45.7931L100.545 45.3735C100.822 45.3576 101.126 45.4648 101.455 45.6949C101.785 45.925 102.104 46.2526 102.413 46.6776C102.722 47.1025 102.972 47.6036 103.162 48.1806C103.419 48.9614 103.493 49.6891 103.386 50.3639C103.282 51.0472 103.02 51.6366 102.6 52.1322C102.188 52.625 101.634 52.9858 100.938 53.2148C100.251 53.4409 99.5899 53.475 98.9548 53.3172C98.3226 53.1678 97.7616 52.8492 97.272 52.3613C96.7823 51.8735 96.4091 51.2392 96.1522 50.4585C95.9596 49.8729 95.8657 49.316 95.8706 48.7877C95.8755 48.2594 95.9507 47.8021 96.0963 47.4156C96.2504 47.0263 96.4379 46.753 96.6589 46.5957L96.9921 47.008L92.524 48.478L91.8498 46.4285ZM97.7074 49.3967C97.8665 49.8804 98.0782 50.281 98.3425 50.5984C98.6153 50.9131 98.9154 51.1247 99.2427 51.2334C99.5812 51.3477 99.9287 51.3462 100.285 51.229C100.642 51.1117 100.918 50.908 101.114 50.6177C101.318 50.3247 101.433 49.972 101.457 49.5597C101.493 49.153 101.431 48.7078 101.272 48.2241C101.112 47.7404 100.895 47.3369 100.62 47.0138C100.347 46.6991 100.041 46.4846 99.7025 46.3703C99.3752 46.2617 99.0376 46.2646 98.6896 46.379C98.3332 46.4963 98.0513 46.6972 97.844 46.9817C97.6479 47.2719 97.5335 47.6246 97.5008 48.0398C97.4794 48.4607 97.5482 48.9129 97.7074 49.3967Z" fill="white"/>
<path d="M103.437 61.5027L110.203 63.7076L109.572 65.6443L107.818 65.1432L108.231 64.6998C108.37 64.9051 108.499 65.1443 108.617 65.4176C108.743 65.6936 108.837 65.9967 108.898 66.3268C108.968 66.6597 108.992 67.0198 108.969 67.407C108.952 67.8054 108.87 68.2298 108.723 68.6799C108.588 69.0961 108.398 69.4619 108.154 69.7771C107.916 70.1036 107.611 70.3472 107.24 70.5079C106.874 70.6798 106.436 70.7393 105.927 70.6862L106.19 70.1377L106.357 70.3188C106.483 70.5384 106.607 70.7904 106.731 71.0749C106.851 71.3679 106.945 71.6851 107.012 72.0265C107.088 72.3707 107.119 72.7377 107.105 73.1277C107.09 73.5177 107.015 73.9208 106.88 74.337C106.633 75.0929 106.302 75.6475 105.886 76.0006C105.479 76.3564 105.023 76.5601 104.517 76.6115C104.012 76.6629 103.505 76.6056 102.995 76.4395L98.9943 75.1356L99.6628 73.0843L103.37 74.2927C103.642 74.3812 103.905 74.4106 104.159 74.3806C104.411 74.3591 104.636 74.2588 104.835 74.0794C105.04 73.9114 105.198 73.6575 105.309 73.3177C105.417 72.9864 105.466 72.664 105.455 72.3505C105.442 72.0455 105.381 71.7577 105.271 71.4873C105.168 71.228 105.021 71.0016 104.83 70.8079C104.637 70.6228 104.409 70.4873 104.145 70.4015L100.884 69.3384L101.552 67.2871L105.273 68.4996C105.553 68.591 105.819 68.6118 106.07 68.5621C106.329 68.5152 106.566 68.3808 106.779 68.159C106.989 67.9457 107.162 67.631 107.298 67.2147C107.395 66.9175 107.428 66.6277 107.398 66.3453C107.365 66.0715 107.289 65.8164 107.168 65.5798C107.054 65.3546 106.919 65.1648 106.762 65.0105C106.606 64.8561 106.451 64.7541 106.298 64.7042L102.769 63.554L103.437 61.5027Z" fill="white"/>
<path d="M95.2146 85.0323C95.8909 84.3071 96.5994 83.7767 97.3399 83.4412C98.0808 83.1183 98.794 82.9955 99.4793 83.0728C100.165 83.15 100.762 83.4263 101.272 83.9016C101.696 84.2977 101.99 84.7426 102.153 85.2362C102.322 85.736 102.378 86.2524 102.32 86.7854C102.257 87.3248 102.095 87.8583 101.836 88.3856C101.576 88.9256 101.233 89.4243 100.807 89.8816C100.374 90.3455 99.9098 90.7125 99.4135 90.9826C98.9177 91.2653 98.4151 91.444 97.9057 91.5187C97.3967 91.6059 96.906 91.5819 96.4336 91.4467C95.9611 91.3114 95.535 91.0545 95.1552 90.6758L94.6841 90.2181L99.83 84.7009L101.02 85.3895L96.8523 89.8582L96.7823 89.4814L96.9783 89.6642C97.179 89.8025 97.424 89.8477 97.7131 89.7997C98.0026 89.7644 98.3084 89.6526 98.6306 89.4644C98.9466 89.2827 99.2478 89.0383 99.5342 88.7313C99.8633 88.3785 100.122 88.0092 100.311 87.6233C100.5 87.2375 100.578 86.8587 100.546 86.4869C100.521 86.1211 100.345 85.7859 100.018 85.4813C99.7374 85.2192 99.3912 85.0796 98.9797 85.0623C98.5687 85.0577 98.1303 85.1741 97.6645 85.4115C97.1926 85.6555 96.7282 86.0225 96.2712 86.5125C95.8081 87.009 95.4856 87.4596 95.3037 87.8641C95.1284 88.2748 95.0099 88.5918 94.9481 88.8152L93.327 88.5493C93.4022 88.1674 93.5212 87.7713 93.6839 87.3611C93.8531 86.957 94.0667 86.5577 94.3248 86.1631C94.5828 85.7686 94.8794 85.3916 95.2146 85.0323Z" fill="white"/>
</svg>
